<?xml version="1.0" standalone="no"?>
<!DOCTYPE svg PUBLIC "-//W3C//DTD SVG 20010904//EN"
 "http://www.w3.org/TR/2001/REC-SVG-20010904/DTD/svg10.dtd">
<svg version="1.0" xmlns="http://www.w3.org/2000/svg"
 width="700.000000pt" height="700.000000pt" viewBox="0 0 700.000000 700.000000"
 preserveAspectRatio="xMidYMid meet">
<metadata>
Created by potrace 1.11, written by Peter Selinger 2001-2013
</metadata>
<g transform="translate(0.000000,700.000000) scale(0.100000,-0.100000)"
fill="#000000" stroke="none">
<path d="M2765 6988 c-14 -41 -228 -630 -241 -663 -9 -22 -22 -60 -30 -85 -8
-25 -19 -54 -24 -65 -9 -18 -97 -261 -200 -545 -88 -245 -272 -748 -284 -780
-8 -19 -26 -69 -41 -110 -15 -41 -30 -84 -35 -95 -4 -11 -34 -92 -65 -180 -32
-88 -78 -214 -103 -280 -24 -66 -64 -174 -87 -240 -24 -66 -68 -189 -99 -272
-142 -387 -171 -465 -208 -568 -22 -60 -55 -155 -75 -210 -19 -55 -41 -113
-48 -130 -7 -16 -20 -50 -28 -75 -32 -90 -198 -546 -207 -565 -4 -11 -59 -159
-120 -330 -62 -170 -122 -337 -135 -370 -13 -33 -67 -181 -120 -330 -53 -148
-102 -283 -110 -300 -7 -16 -18 -48 -25 -70 -7 -22 -18 -53 -25 -70 -7 -16
-46 -120 -86 -230 -40 -110 -83 -229 -96 -265 -22 -59 -53 -151 -53 -158 0 -1
372 -1 827 0 l827 3 42 120 c42 118 97 273 196 550 27 77 76 214 108 305 32
91 90 255 130 365 39 110 93 261 120 335 27 74 67 189 90 255 22 66 45 129 50
140 8 20 34 92 315 885 75 212 141 394 146 405 6 12 11 27 13 35 2 8 6 22 9
30 6 15 172 481 267 750 26 74 67 191 91 258 l44 124 14 -34 c7 -18 33 -89 58
-158 24 -69 47 -134 52 -145 5 -11 21 -54 35 -95 13 -41 37 -106 51 -145 14
-38 32 -88 40 -110 7 -22 33 -96 58 -165 24 -69 104 -291 176 -495 73 -203
140 -392 151 -420 10 -27 100 -279 200 -560 100 -280 190 -532 200 -560 10
-27 56 -153 100 -280 45 -126 91 -255 102 -285 31 -87 212 -594 299 -840 44
-124 84 -235 89 -247 l10 -23 825 0 c505 0 825 4 825 9 0 5 -5 22 -11 38 -7
15 -26 68 -44 118 -18 50 -45 122 -59 160 -15 39 -34 90 -42 115 -9 25 -31 86
-49 135 -35 95 -130 355 -170 465 -57 159 -107 298 -120 330 -36 95 -67 180
-381 1045 -52 143 -103 283 -114 310 -10 28 -37 102 -60 165 -23 63 -45 124
-50 135 -5 11 -12 31 -15 45 -4 14 -13 39 -20 55 -7 17 -32 84 -55 150 -24 66
-48 134 -56 150 -7 17 -20 53 -29 80 -9 28 -20 59 -25 70 -6 11 -28 72 -51
135 -44 125 -69 195 -122 340 -19 52 -71 196 -116 320 -45 124 -86 234 -91
245 -5 11 -20 52 -33 90 -14 39 -104 286 -200 550 -96 264 -255 698 -352 965
-158 434 -261 712 -280 763 -7 16 -51 17 -736 17 -575 0 -731 -3 -734 -12z"/>
</g>
</svg>
