<?xml version="1.0" standalone="no"?>
<!DOCTYPE svg PUBLIC "-//W3C//DTD SVG 20010904//EN"
 "http://www.w3.org/TR/2001/REC-SVG-20010904/DTD/svg10.dtd">
<svg version="1.0" xmlns="http://www.w3.org/2000/svg"
 width="700.000000pt" height="700.000000pt" viewBox="0 0 700.000000 700.000000"
 preserveAspectRatio="xMidYMid meet">
<metadata>
Created by potrace 1.11, written by Peter Selinger 2001-2013
</metadata>
<g transform="translate(0.000000,700.000000) scale(0.100000,-0.100000)"
fill="#000000" stroke="none">
<path d="M0 5250 l0 -1750 350 0 350 0 0 -1750 0 -1750 525 0 525 0 0 1750 0
1750 1750 0 1750 0 0 -1750 0 -1750 525 0 525 0 0 1750 0 1750 350 0 350 0 0
1750 0 1750 -3500 0 -3500 0 0 -1750z m5950 0 l0 -700 -2450 0 -2450 0 0 700
0 700 2450 0 2450 0 0 -700z"/>
</g>
</svg>
